<?xml version="1.0" encoding="iso-8859-1"?>
<!-- Generator: Adobe Illustrator 18.1.1, SVG Export Plug-In . SVG Version: 6.00 Build 0)  -->
<svg version="1.1" id="Capa_1" xmlns="http://www.w3.org/2000/svg" xmlns:xlink="http://www.w3.org/1999/xlink" x="0px" y="0px"
	 viewBox="0 0 30.856 30.856" style="enable-background:new 0 0 30.856 30.856;" xml:space="preserve">
<g>
	<path d="M3.407,6.123c0.537,0,0.975-0.436,0.975-0.973c0-0.541-0.438-0.975-0.975-0.975S2.435,4.609,2.435,5.151
		C2.435,5.688,2.87,6.123,3.407,6.123z"/>
	<path d="M6.33,6.123c0.538,0,0.975-0.436,0.975-0.973c0-0.541-0.437-0.975-0.975-0.975c-0.54,0-0.976,0.434-0.976,0.975
		C5.354,5.688,5.79,6.123,6.33,6.123z"/>
	<path d="M9.312,6.123c0.539,0,0.973-0.436,0.973-0.973c0-0.541-0.434-0.975-0.973-0.975S8.338,4.609,8.338,5.151
		C8.338,5.688,8.772,6.123,9.312,6.123z"/>
	<path d="M22.919,12.272c0.836,0,1.644,0.129,2.4,0.375V7.604H1.948v16.539h14.088c-0.667-1.162-1.053-2.506-1.053-3.936
		C14.983,15.828,18.542,12.272,22.919,12.272z"/>
	<path d="M26.95,25.199c-0.428,0.35-0.902,0.639-1.414,0.867C26.128,26,26.64,25.678,26.95,25.199z"/>
	<path d="M27.269,13.576V4.66c0-1.076-0.873-1.947-1.95-1.947H1.948C0.871,2.713,0,3.584,0,4.66v19.483
		c0,1.07,0.871,1.949,1.948,1.949h15.664c1.408,1.268,3.266,2.051,5.307,2.051c4.375,0,7.937-3.561,7.937-7.936
		C30.855,17.436,29.426,14.994,27.269,13.576z M9.312,4.176c0.539,0,0.973,0.434,0.973,0.975c0,0.537-0.434,0.973-0.973,0.973
		S8.338,5.688,8.338,5.151C8.338,4.609,8.772,4.176,9.312,4.176z M6.33,4.176c0.538,0,0.975,0.434,0.975,0.975
		c0,0.537-0.437,0.973-0.975,0.973c-0.54,0-0.976-0.436-0.976-0.973C5.354,4.609,5.79,4.176,6.33,4.176z M3.407,4.176
		c0.537,0,0.975,0.434,0.975,0.975c0,0.537-0.438,0.973-0.975,0.973S2.435,5.688,2.435,5.151C2.435,4.609,2.87,4.176,3.407,4.176z
		 M1.948,24.143V7.604h23.371v5.043c-0.757-0.246-1.564-0.375-2.4-0.375c-4.377,0-7.936,3.557-7.936,7.936
		c0,1.43,0.386,2.773,1.053,3.936L1.948,24.143L1.948,24.143z M26.95,25.199c-0.311,0.479-0.822,0.801-1.414,0.867
		c-0.801,0.359-1.684,0.566-2.617,0.566c-0.915,0-1.784-0.197-2.572-0.541c-0.986-0.436-1.842-1.109-2.496-1.949
		c-0.848-1.09-1.354-2.451-1.354-3.936c0-3.545,2.88-6.426,6.422-6.426c0.85,0,1.658,0.17,2.4,0.469
		c0.729,0.297,1.383,0.719,1.949,1.24c1.271,1.176,2.075,2.852,2.075,4.717C29.344,22.223,28.407,24.025,26.95,25.199z"/>
	<polygon points="21.015,23.209 20.108,20.211 19.65,21.283 15.188,21.283 15.188,20.932 19.39,20.932 20.17,19.109 20.976,21.772 
		21.646,19.002 22.061,20.484 23.187,14.602 24.216,20.721 24.979,19.248 25.927,21.135 30.503,21.135 30.503,21.483 25.683,21.483 
		24.974,20.068 24.028,21.899 23.161,16.742 22.132,22.135 21.673,20.496 	"/>
	<g>
	</g>
	<g>
	</g>
	<g>
	</g>
	<g>
	</g>
	<g>
	</g>
	<g>
	</g>
	<g>
	</g>
	<g>
	</g>
	<g>
	</g>
	<g>
	</g>
	<g>
	</g>
	<g>
	</g>
	<g>
	</g>
	<g>
	</g>
	<g>
	</g>
</g>
<g>
</g>
<g>
</g>
<g>
</g>
<g>
</g>
<g>
</g>
<g>
</g>
<g>
</g>
<g>
</g>
<g>
</g>
<g>
</g>
<g>
</g>
<g>
</g>
<g>
</g>
<g>
</g>
<g>
</g>
</svg>
